<svg xmlns="http://www.w3.org/2000/svg" xmlns:xlink="http://www.w3.org/1999/xlink" id="Capa_1" x="0px" y="0px" viewBox="0 0 100 100" style="enable-background:new 0 0 100 100;" xml:space="preserve"><style type="text/css">	.st0{fill:#FFFFFF;}</style><g>	<path class="st0" d="M99.9,2.1c-0.4-1.6-2-2.5-3.6-2c-0.1,0-5.6,1.5-14.1,2.9V2.9c0-1.6-1.3-2.9-2.9-2.9s-2.9,1.3-2.9,2.9v1  C68.9,5,59.8,5.9,50,5.9S31.1,5,23.6,3.9v-1c0-1.6-1.3-2.9-2.9-2.9s-2.9,1.3-2.9,2.9V3C9.3,1.6,3.8,0.1,3.7,0.1  c-1.6-0.4-3.2,0.5-3.6,2s0.5,3.2,2,3.6C2.6,5.9,8.6,7.5,17.8,9v8.6h5.9V9.9c7.5,1,16.6,1.8,26.4,1.8s18.8-0.8,26.4-1.8v7.7h5.9V9  c9.1-1.5,15.2-3.1,15.6-3.2C99.4,5.3,100.3,3.7,99.9,2.1L99.9,2.1z"></path>	<path class="st0" d="M82.2,79.5c0-1.6-1.3-2.9-2.9-2.9s-2.9,1.3-2.9,2.9c0,1.2-1,2.5-2.3,4c-1.6,2-3.6,4.4-3.6,7.7  c0,4.8,3.9,8.8,8.8,8.8s8.8-3.9,8.8-8.8c0-3.3-2-5.8-3.6-7.7C83.3,82,82.2,80.7,82.2,79.5z"></path>	<path class="st0" d="M23.6,79.5c0-1.6-1.3-2.9-2.9-2.9s-2.9,1.3-2.9,2.9c0,1.2-1,2.5-2.3,4c-1.6,2-3.6,4.4-3.6,7.7  c0,4.8,3.9,8.8,8.8,8.8s8.8-3.9,8.8-8.8c0-3.3-2-5.8-3.6-7.7C24.7,82,23.6,80.7,23.6,79.5z"></path>	<path class="st0" d="M79.3,29.3c-1.6,0-2.9-1.3-2.9-2.9v-8.8H23.6v8.8c0,1.6-1.3,2.9-2.9,2.9s-2.9-1.3-2.9-2.9v-8.8H9  c-1.6,0-2.9,1.3-2.9,2.9v46.9c0,1.6,1.3,2.9,2.9,2.9h82c1.6,0,2.9-1.3,2.9-2.9V20.5c0-1.6-1.3-2.9-2.9-2.9h-8.8v8.8  C82.2,28,80.9,29.3,79.3,29.3z M29.5,52.7h2.7c1.6,0,2.9,1.3,2.9,2.9c0,1.6-1.3,2.9-2.9,2.9h-5.6c-1.6,0-2.9-1.3-2.9-2.9v-2.9h-2.9  c-1.6,0-2.9-1.3-2.9-2.9V38.1c0-1.6,1.3-2.9,2.9-2.9h2.9v-2.9c0-1.6,1.3-2.9,2.9-2.9h5.6c1.6,0,2.9,1.3,2.9,2.9  c0,1.6-1.3,2.9-2.9,2.9h-2.7c0,3.2-2.6,5.9-5.9,5.9v5.9C26.9,46.9,29.5,49.5,29.5,52.7z M48.5,41h2.9c4,0,7.3,3.3,7.3,7.3  c0,3.5-2.5,6.3-5.9,7v3.2c0,1.6-1.3,2.9-2.9,2.9c-1.6,0-2.9-1.3-2.9-2.9v-2.9h-2.9c-1.6,0-2.9-1.3-2.9-2.9s1.3-2.9,2.9-2.9h7.3  c0.8,0,1.5-0.7,1.5-1.5s-0.7-1.5-1.5-1.5h-2.9c-4,0-7.3-3.3-7.3-7.3c0-3.5,2.5-6.3,5.9-7v-3.2c0-1.6,1.3-2.9,2.9-2.9  s2.9,1.3,2.9,2.9v2.9h2.9c1.6,0,2.9,1.3,2.9,2.9s-1.3,2.9-2.9,2.9h-7.3c-0.8,0-1.5,0.7-1.5,1.5C47.1,40.4,47.7,41,48.5,41L48.5,41z   M82.2,49.8c0,1.6-1.3,2.9-2.9,2.9h-2.9v2.9c0,1.6-1.3,2.9-2.9,2.9h-5.6c-1.6,0-2.9-1.3-2.9-2.9c0-1.6,1.3-2.9,2.9-2.9h2.7  c0-3.2,2.6-5.9,5.9-5.9V41c-3.2,0-5.9-2.6-5.9-5.9h-2.7c-1.6,0-2.9-1.3-2.9-2.9c0-1.6,1.3-2.9,2.9-2.9h5.6c1.6,0,2.9,1.3,2.9,2.9  v2.9h2.9c1.6,0,2.9,1.3,2.9,2.9V49.8z"></path></g></svg>