<svg xmlns="http://www.w3.org/2000/svg" xmlns:xlink="http://www.w3.org/1999/xlink" id="Capa_1" x="0px" y="0px" viewBox="0 0 100 100" style="enable-background:new 0 0 100 100;" xml:space="preserve"><style type="text/css">	.st0{fill:#FFFFFF;}</style><g>	<path class="st0" d="M68.6,1.7v17.8h17.8L68.6,1.7z"></path>	<path class="st0" d="M56,37.5H44c-2.3,4-6.1,6.7-10.6,7.5v14.1c0,10.6,6.6,19.8,16.6,23.2c10-3.4,16.6-12.6,16.6-23.2V45  C62.2,44.2,58.3,41.5,56,37.5z M60.4,56.5l-11,11c-0.6,0.6-1.3,0.9-2.1,0.9c-0.7,0-1.5-0.3-2.1-0.9L39.6,62c-1.1-1.1-1.1-3,0-4.1  c1.1-1.1,3-1.1,4.1,0l3.5,3.5l9-9c1.1-1.1,3-1.1,4.1,0C61.5,53.5,61.5,55.4,60.4,56.5z"></path>	<path class="st0" d="M65.6,25.4c-1.6,0-2.9-1.3-2.9-2.9V0h-40c-5.9,0-10.7,4.8-10.7,10.7v78.5c0,5.9,4.8,10.7,10.7,10.7h54.7  c5.9,0,10.7-4.8,10.7-10.7V25.4H65.6z M72.5,59.1c0,6.6-2.1,12.8-6,18.1c-3.9,5.3-9.3,9.1-15.6,10.9c-0.3,0.1-0.6,0.1-0.8,0.1  s-0.6,0-0.8-0.1c-6.3-1.9-11.7-5.7-15.6-10.9c-3.9-5.3-6-11.5-6-18.1V42.4c0-1.6,1.3-2.9,2.9-2.9c3.7,0,7-2.1,8.7-5.4l0.4-0.8  c0.5-1,1.5-1.6,2.6-1.6h15.6c1.1,0,2.1,0.6,2.6,1.6l0.4,0.8c1.7,3.3,5,5.4,8.7,5.4c1.6,0,2.9,1.3,2.9,2.9V59.1z"></path></g></svg>