<svg xmlns="http://www.w3.org/2000/svg" xmlns:xlink="http://www.w3.org/1999/xlink" id="Capa_1" x="0px" y="0px" viewBox="0 0 100 100" style="enable-background:new 0 0 100 100;" xml:space="preserve"><style type="text/css">	.st0{fill:#FFFFFF;}</style><g>	<path class="st0" d="M73.6,20.7h-3.5v12.5h12.3v-3.7C82.4,24.6,78.5,20.7,73.6,20.7z"></path>	<path class="st0" d="M61.3,0H26.2c-1.6,0-2.9,1.3-2.9,2.9v30.3h41V2.9C64.3,1.3,62.9,0,61.3,0z"></path>	<path class="st0" d="M17.4,20.7H9.2c-2.5,0-4.8,1-6.5,2.7C1,25.1,0,27.4,0,29.9v3.3h17.4V20.7z"></path>	<path class="st0" d="M66.8,67.2c0,4.3,3.6,9.6,8,9.6h22.3c1.6,0,2.9-1.3,2.9-2.9V60.5c0-1.6-1.3-2.9-2.9-2.9H74.8  C70.4,57.6,66.8,62.9,66.8,67.2z M79.5,67.2c0,1.6-1.3,2.9-2.9,2.9s-2.9-1.3-2.9-2.9c0-1.6,1.3-2.9,2.9-2.9S79.5,65.6,79.5,67.2z"></path>	<path class="st0" d="M64.8,77.6c-2.5-3-3.9-6.7-3.9-10.4s1.4-7.4,3.9-10.4c2.7-3.2,6.3-5,10-5h20.1V43c0-0.5,0-1-0.1-1.4  c-0.2-1.4-1.4-2.5-2.9-2.5H0V90c0,5.5,3.9,10,8.8,10h77.3c4.8,0,8.8-4.5,8.8-10v-7.4H74.8C71.1,82.6,67.5,80.8,64.8,77.6z"></path></g></svg>