<svg xmlns="http://www.w3.org/2000/svg" xmlns:xlink="http://www.w3.org/1999/xlink" id="Capa_1" x="0px" y="0px" viewBox="0 0 100 100" style="enable-background:new 0 0 100 100;" xml:space="preserve"><style type="text/css">	.st0{fill:#FFFFFF;}</style><g>	<circle class="st0" cx="50" cy="23.4" r="17"></circle>	<circle class="st0" cx="84.4" cy="29.6" r="10.7"></circle>	<circle class="st0" cx="15.6" cy="29.6" r="10.7"></circle>	<path class="st0" d="M26.2,50c-4.2-3.5-8.1-3-12.9-3C5.9,47,0,52.9,0,60.2v21.3c0,3.2,2.6,5.7,5.7,5.7c13.7,0,12,0.2,12-0.6  C17.8,71.5,16,60.4,26.2,50z"></path>	<path class="st0" d="M54.7,47.1c-8.5-0.7-16,0-22.4,5.3c-10.7,8.6-8.7,20.1-8.7,34.3c0,3.7,3,6.8,6.8,6.8c41.2,0,42.9,1.3,45.3-4.1  c0.8-1.8,0.6-1.2,0.6-18.8C76.4,56.7,64.3,47.1,54.7,47.1L54.7,47.1z"></path>	<path class="st0" d="M86.7,47c-4.9,0-8.7-0.5-12.9,3c10.1,10.4,8.4,20.7,8.4,36.6c0,0.8-1.4,0.6,11.8,0.6c3.3,0,5.9-2.7,5.9-5.9  V60.2C100,52.9,94.1,47,86.7,47z"></path></g></svg>