<svg xmlns="http://www.w3.org/2000/svg" xmlns:xlink="http://www.w3.org/1999/xlink" id="Capa_1" x="0px" y="0px" viewBox="0 0 100 100" style="enable-background:new 0 0 100 100;" xml:space="preserve"><style type="text/css">	.st0{fill:#FFFFFF;}</style><g>	<g>		<g>			<path class="st0" d="M62.1,80.4c1-1.2,2.3-2.2,3.7-2.7c-1.8-3-2.8-6.5-2.8-10.1c0-0.4,0-0.9,0-1.3l-5.3-2.1L53,60.2    c-1.2-1-3.1-1-4.2,0.2l-6.5,6.5l-6.5-6.5c-1.1-1.1-3-1.2-4.2-0.2l-4.7,3.9l-20,8c-6.4,2.6-6.4,25.3-7,27.4h54.7    c-0.8-1.2-1.3-2.5-1.5-3.9c-0.3-2.3,0.4-4.5,1.8-6.4L62.1,80.4z"></path>			<path class="st0" d="M83.3,87.7C83.3,87.7,83.3,87.7,83.3,87.7c-2,0-4-0.3-5.9-0.9c-0.2,1.5-0.8,3-1.8,4.2l-6.7,8.5h15.8    c-0.3-1-0.4-6.2-1.1-11.9C83.5,87.7,83.4,87.7,83.3,87.7z"></path>			<path class="st0" d="M28.4,20.4c3.7,1.8,8.6,2.7,13.9,2.7c5.3,0,10.2-1,13.9-2.7c2.3-1.1,3.9-2.4,4.6-3.7c0,0,0,0-0.1,0    C58.6-10.6,45,4.7,42.3,4.7c-2.7,0-16.3-15.3-18.5,11.9c0,0,0,0-0.1,0C24.5,18,26.1,19.3,28.4,20.4z"></path>			<path class="st0" d="M22.4,33.1c0.9,16.1,9.3,25.6,19.9,25.6s19-9.5,19.9-25.6c5.2-2,8.3-4.9,8.3-8c0-2.8-2.5-5.3-6.7-7.3    c-1,2.1-3.2,3.9-6.2,5.4c-4.1,2-9.5,3-15.3,3c-5.8,0-11.2-1.1-15.3-3c-3.1-1.5-5.2-3.3-6.2-5.4c-4.2,2-6.7,4.5-6.7,7.3    C14.1,28.2,17.3,31,22.4,33.1z"></path>			<path class="st0" d="M93.7,54.2c-7.2-5.7-17.7-4.5-23.4,2.8c-4.9,6.2-4.7,14.9,0.1,20.8l-2.4,3c-1.1,0.2-2.2,0.8-3,1.8l-7,8.9    c-1.7,2.1-1.3,5.2,0.8,6.9c2.1,1.7,5.2,1.3,6.9-0.8l7-8.9c0.8-1,1.1-2.2,1.1-3.3l2.4-3c6.9,3.3,15.3,1.5,20.3-4.7    C102.1,70.4,100.9,59.9,93.7,54.2z M92.5,74.6c-4,5.1-11.4,6-16.5,1.9c-5.1-4-6-11.4-1.9-16.5c4-5.1,11.4-6,16.5-1.9    C95.7,62.1,96.6,69.5,92.5,74.6z"></path>		</g>	</g></g></svg>