<svg xmlns:svg="http://www.w3.org/2000/svg" xmlns="http://www.w3.org/2000/svg" xmlns:xlink="http://www.w3.org/1999/xlink" id="svg2925" x="0px" y="0px" viewBox="0 0 100 100" style="enable-background:new 0 0 100 100;" xml:space="preserve"><style type="text/css">	.st0{fill:#FFFFFF;}</style><g id="g2931" transform="matrix(1.3333333,0,0,-1.3333333,0,682.66667)">	<g id="g2933">		<g>			<g id="g2935">				<g id="g2941" transform="translate(283.9395,154.7192)">					<path id="path2943" class="st0" d="M-242.3,304.9h-7.7c-1.2,0-2.2,1-2.2,2.2s1,2.2,2.2,2.2h7.7c4.1,0,7.5,3.4,7.5,7.5      c0,4.1-3.4,7.5-7.5,7.5h-12.6l2.2-2.2c0.9-0.9,0.9-2.2,0-3.1c-0.4-0.4-1-0.6-1.6-0.6c-0.6,0-1.1,0.2-1.6,0.6l-5.9,5.9      c-0.9,0.9-0.9,2.2,0,3.1l5.9,5.9c0.9,0.9,2.2,0.9,3.1,0c0.9-0.9,0.9-2.2,0-3.1l-2.2-2.2h12.6c6.6,0,11.9-5.3,11.9-11.9      C-230.5,310.3-235.8,304.9-242.3,304.9 M-219.9,346.3c-7.1,7.1-16.5,11-26.5,11c-10,0-19.4-3.9-26.5-11      c-7.1-7.1-11-16.5-11-26.5s3.9-19.4,11-26.5c7.1-7.1,16.5-11,26.5-11c10,0,19.4,3.9,26.5,11c7.1,7.1,11,16.5,11,26.5      S-212.8,339.2-219.9,346.3"></path>				</g>			</g>		</g>	</g></g></svg>