<svg xmlns="http://www.w3.org/2000/svg" xmlns:xlink="http://www.w3.org/1999/xlink" id="Capa_1" x="0px" y="0px" viewBox="0 0 100 100" style="enable-background:new 0 0 100 100;" xml:space="preserve"><style type="text/css">	.st0{fill:#FFFFFF;}</style><g>	<path class="st0" d="M24.6,6.8c-3.2,1.6-6.4,3.5-9.5,5.7C6.4,18.4,1,24.4,0.8,24.6c-1,1.1-1,2.8,0,3.9c0.2,0.2,5.6,6.2,14.3,12.2  c3.2,2.2,6.3,4.1,9.5,5.7c-4.3-5.5-6.8-12.3-6.8-19.8S20.3,12.2,24.6,6.8z"></path>	<path class="st0" d="M75.4,6.8c3.2,1.6,6.4,3.5,9.5,5.7c8.7,6,14.1,11.9,14.3,12.2c1,1.1,1,2.8,0,3.9c-0.2,0.2-5.6,6.2-14.3,12.2  c-3.2,2.2-6.3,4.1-9.5,5.7c4.3-5.5,6.8-12.3,6.8-19.8S79.7,12.2,75.4,6.8L75.4,6.8z"></path>	<path class="st0" d="M50,0.2C35.5,0.2,23.6,12,23.6,26.6c0,10.7,6.4,19.9,15.6,24.1l0.5-1c2.1-3.7,6-6.1,10.3-6.1s8.2,2.3,10.3,6.1  l0.5,1c9.2-4.1,15.6-13.4,15.6-24.1C76.4,12,64.5,0.2,50,0.2z M50,38.3c-6.5,0-11.7-5.3-11.7-11.7S43.5,14.8,50,14.8  s11.7,5.3,11.7,11.7S56.5,38.3,50,38.3z"></path>	<circle class="st0" cx="50" cy="26.6" r="5.9"></circle>	<path class="st0" d="M55.1,52.5c-2.2-4-8-4-10.3,0L23.5,91.1c-2.2,3.9,0.7,8.7,5.1,8.7h42.7c4.5,0,7.3-4.8,5.1-8.7L55.1,52.5z   M50,91c-1.6,0-2.9-1.3-2.9-2.9s1.3-2.9,2.9-2.9c1.6,0,2.9,1.3,2.9,2.9S51.6,91,50,91z M52.9,78.3c0,1.6-1.3,2.9-2.9,2.9  c-1.6,0-2.9-1.3-2.9-2.9V65.6c0-1.6,1.3-2.9,2.9-2.9c1.6,0,2.9,1.3,2.9,2.9V78.3z"></path></g></svg>