<svg xmlns="http://www.w3.org/2000/svg" xmlns:xlink="http://www.w3.org/1999/xlink" id="&#x421;&#x43B;&#x43E;&#x439;_1" x="0px" y="0px" viewBox="0 0 100 100" style="enable-background:new 0 0 100 100;" xml:space="preserve"><style type="text/css">	.st0{fill:#FFFFFF;}</style><path class="st0" d="M73.8,45.6c0.2,0,0.3,0,0.5,0l0,0c0.9,0,1.9,0.1,2.8,0.2v-34C77.2,5.3,71.9,0,65.4,0H14.2 C7.7,0,2.4,5.3,2.4,11.8v67.9c0,6.5,5.3,11.8,11.8,11.8h34.2c-2.9-4.7-4.5-10.2-4.5-15.8C43.8,59.1,57.3,45.6,73.8,45.6z M44.7,19.3 h17.5c1.6,0,2.9,1.3,2.9,2.9s-1.3,2.9-2.9,2.9H44.7c-1.6,0-2.9-1.3-2.9-2.9S43.1,19.3,44.7,19.3z M44.7,31h17.5 c1.6,0,2.9,1.3,2.9,2.9s-1.3,2.9-2.9,2.9H44.7c-1.6,0-2.9-1.3-2.9-2.9S43.1,31,44.7,31z M34.8,72.2H17.4c-1.6,0-2.9-1.3-2.9-2.9 c0-1.6,1.3-2.9,2.9-2.9h17.5c1.6,0,2.9,1.3,2.9,2.9C37.8,70.9,36.5,72.2,34.8,72.2z M34.8,60.3H17.4c-1.6,0-2.9-1.3-2.9-2.9 s1.3-2.9,2.9-2.9h17.5c1.6,0,2.9,1.3,2.9,2.9S36.5,60.3,34.8,60.3z M34.8,48.6H17.4c-1.6,0-2.9-1.3-2.9-2.9s1.3-2.9,2.9-2.9h17.5 c1.6,0,2.9,1.3,2.9,2.9S36.5,48.6,34.8,48.6z M34.8,36.8H17.4c-1.6,0-2.9-1.3-2.9-2.9s1.3-2.9,2.9-2.9h17.5c1.6,0,2.9,1.3,2.9,2.9 S36.5,36.8,34.8,36.8z M34.8,25.1H17.4c-1.6,0-2.9-1.3-2.9-2.9s1.3-2.9,2.9-2.9h17.5c1.6,0,2.9,1.3,2.9,2.9S36.5,25.1,34.8,25.1z  M41.7,45.6c0-1.6,1.3-2.9,2.9-2.9h8.4c1.6,0,2.9,1.3,2.9,2.9s-1.3,2.9-2.9,2.9h-8.4C43.1,48.6,41.7,47.3,41.7,45.6z"></path><path class="st0" d="M91.2,58.6c-4.5-4.6-10.5-7.2-16.9-7.3l0,0c-0.1,0-0.3,0-0.4,0c-13.4,0-24.3,10.9-24.3,24.3 c0,5.3,1.7,10.4,4.9,14.6c4.6,6.2,11.7,9.7,19.4,9.7c13.4,0,24.3-10.9,24.3-24.3C98.2,69.2,95.7,63.2,91.2,58.6z M84.2,71.7 l-9.3,11.6c-0.6,0.7-1.4,1.1-2.3,1.1c-0.6,0-1.2-0.2-1.7-0.6l-6.9-5c-1.3-0.9-1.6-2.8-0.7-4.1c0.9-1.3,2.8-1.6,4.1-0.7l4.7,3.4 l7.5-9.4c1-1.3,2.9-1.5,4.1-0.5C85,68.6,85.2,70.4,84.2,71.7z"></path></svg>