<svg xmlns="http://www.w3.org/2000/svg" xmlns:xlink="http://www.w3.org/1999/xlink" id="Capa_1" x="0px" y="0px" viewBox="0 0 100 100" style="enable-background:new 0 0 100 100;" xml:space="preserve"><style type="text/css">	.st0{fill:#FFFFFF;}</style><g>	<path class="st0" d="M50,28.5c1.5,0.6,2.9,1.4,4.3,2.2c1.1,0.1,2.6,0,2.6-1.4c0,0-0.1-27.8-0.1-27.8c0-0.9-0.8-1.6-1.7-1.4  C42,3,31.6,12.9,27.9,25.8C35.3,24.6,43.1,25.5,50,28.5L50,28.5z"></path>	<path class="st0" d="M34.2,31.3c-40.7-0.3-46.7,60.2-7.5,68.5c0.7,0.2,1.3-0.4,1.3-1.1L28,72.2c0-0.6-0.5-1.1-1.1-1.1h-3.7  c-1.2,0-1.9-1.3-1.3-2.3c16.2-23.8,8.4-23.8,24.6,0c0.6,1-0.1,2.3-1.3,2.3h-4.1c-0.6,0-1.1,0.5-1.1,1.1l0.1,26.7  c0,0.7,0.6,1.2,1.3,1.1C81,92,75.1,31,34.2,31.3L34.2,31.3z"></path>	<path class="st0" d="M99.7,35.4C99.5,18.2,87.5,3.9,71.5,0.1c-0.9-0.2-1.7,0.5-1.7,1.4l0.1,27.7c0,0.8,0.6,1.4,1.4,1.4h3.9  c1.1,0,1.8,1.2,1.2,2.2l-7.6,11.8c4.8,7.8,6.8,17.2,5.7,26.3C89.3,66.1,100,51.9,99.7,35.4z"></path></g></svg>